<mxfile host="app.diagrams.net" modified="2021-05-27T03:08:14.006Z" agent="5.0 (Windows NT 10.0; Win64; x64) AppleWebKit/537.36 (KHTML, like Gecko) Chrome/86.0.4240.75 Safari/537.36" etag="h6fDZmu_Oy6XsCTxB2dS" version="14.6.13" type="github">
  <diagram id="C5RBs43oDa-KdzZeNtuy" name="Page-1">
    <mxGraphModel dx="1422" dy="794" grid="1" gridSize="10" guides="1" tooltips="1" connect="1" arrows="1" fold="1" page="1" pageScale="1" pageWidth="827" pageHeight="1169" math="0" shadow="0">
      <root>
        <mxCell id="WIyWlLk6GJQsqaUBKTNV-0" />
        <mxCell id="WIyWlLk6GJQsqaUBKTNV-1" parent="WIyWlLk6GJQsqaUBKTNV-0" />
        <mxCell id="dBJiUUkti5pUjCc-3D_W-3" value="region-platform" style="rounded=1;whiteSpace=wrap;html=1;" vertex="1" parent="WIyWlLk6GJQsqaUBKTNV-1">
          <mxGeometry x="360" y="360" width="130" height="59.5" as="geometry" />
        </mxCell>
        <mxCell id="dBJiUUkti5pUjCc-3D_W-23" style="edgeStyle=orthogonalEdgeStyle;rounded=0;orthogonalLoop=1;jettySize=auto;html=1;exitX=0.5;exitY=0;exitDx=0;exitDy=0;entryX=0.45;entryY=1;entryDx=0;entryDy=0;entryPerimeter=0;" edge="1" parent="WIyWlLk6GJQsqaUBKTNV-1" source="dBJiUUkti5pUjCc-3D_W-5" target="dBJiUUkti5pUjCc-3D_W-15">
          <mxGeometry relative="1" as="geometry" />
        </mxCell>
        <mxCell id="dBJiUUkti5pUjCc-3D_W-24" style="edgeStyle=orthogonalEdgeStyle;rounded=0;orthogonalLoop=1;jettySize=auto;html=1;exitX=0.5;exitY=0;exitDx=0;exitDy=0;entryX=0.5;entryY=1;entryDx=0;entryDy=0;" edge="1" parent="WIyWlLk6GJQsqaUBKTNV-1" source="dBJiUUkti5pUjCc-3D_W-5" target="dBJiUUkti5pUjCc-3D_W-3">
          <mxGeometry relative="1" as="geometry" />
        </mxCell>
        <mxCell id="dBJiUUkti5pUjCc-3D_W-5" value="foshan" style="rounded=1;whiteSpace=wrap;html=1;" vertex="1" parent="WIyWlLk6GJQsqaUBKTNV-1">
          <mxGeometry x="223" y="600" width="120" height="60" as="geometry" />
        </mxCell>
        <mxCell id="dBJiUUkti5pUjCc-3D_W-10" value="区域平台插件" style="text;html=1;strokeColor=none;fillColor=none;align=center;verticalAlign=middle;whiteSpace=wrap;rounded=0;" vertex="1" parent="WIyWlLk6GJQsqaUBKTNV-1">
          <mxGeometry x="375" y="337" width="100" height="20" as="geometry" />
        </mxCell>
        <mxCell id="dBJiUUkti5pUjCc-3D_W-11" value="佛山" style="text;html=1;strokeColor=none;fillColor=none;align=center;verticalAlign=middle;whiteSpace=wrap;rounded=0;" vertex="1" parent="WIyWlLk6GJQsqaUBKTNV-1">
          <mxGeometry x="230" y="660" width="100" height="20" as="geometry" />
        </mxCell>
        <mxCell id="dBJiUUkti5pUjCc-3D_W-15" value="market-purchase-provider" style="rounded=1;whiteSpace=wrap;html=1;" vertex="1" parent="WIyWlLk6GJQsqaUBKTNV-1">
          <mxGeometry x="120" y="360" width="120" height="60" as="geometry" />
        </mxCell>
        <mxCell id="dBJiUUkti5pUjCc-3D_W-18" value="市场采购组件" style="text;html=1;strokeColor=none;fillColor=none;align=center;verticalAlign=middle;whiteSpace=wrap;rounded=0;" vertex="1" parent="WIyWlLk6GJQsqaUBKTNV-1">
          <mxGeometry x="130" y="337" width="100" height="20" as="geometry" />
        </mxCell>
        <mxCell id="dBJiUUkti5pUjCc-3D_W-28" value="" style="shape=singleArrow;direction=south;whiteSpace=wrap;html=1;" vertex="1" parent="WIyWlLk6GJQsqaUBKTNV-1">
          <mxGeometry x="420" y="220" width="20" height="100" as="geometry" />
        </mxCell>
        <mxCell id="dBJiUUkti5pUjCc-3D_W-30" value="申报入口" style="text;html=1;strokeColor=none;fillColor=none;align=center;verticalAlign=middle;whiteSpace=wrap;rounded=0;" vertex="1" parent="WIyWlLk6GJQsqaUBKTNV-1">
          <mxGeometry x="380" y="180" width="100" height="40" as="geometry" />
        </mxCell>
        <mxCell id="dBJiUUkti5pUjCc-3D_W-32" style="edgeStyle=orthogonalEdgeStyle;rounded=0;orthogonalLoop=1;jettySize=auto;html=1;exitX=0.5;exitY=0;exitDx=0;exitDy=0;entryX=1;entryY=0.5;entryDx=0;entryDy=0;" edge="1" parent="WIyWlLk6GJQsqaUBKTNV-1" source="dBJiUUkti5pUjCc-3D_W-31" target="dBJiUUkti5pUjCc-3D_W-3">
          <mxGeometry relative="1" as="geometry" />
        </mxCell>
        <mxCell id="dBJiUUkti5pUjCc-3D_W-31" value="其他区域" style="rounded=1;whiteSpace=wrap;html=1;" vertex="1" parent="WIyWlLk6GJQsqaUBKTNV-1">
          <mxGeometry x="520" y="600" width="120" height="60" as="geometry" />
        </mxCell>
      </root>
    </mxGraphModel>
  </diagram>
</mxfile>
